<?xml version="1.0" encoding="UTF-8" standalone="no"?>
<!-- Created with Inkscape (http://www.inkscape.org/) -->

<svg
   xmlns:dc="http://purl.org/dc/elements/1.1/"
   xmlns:cc="http://creativecommons.org/ns#"
   xmlns:rdf="http://www.w3.org/1999/02/22-rdf-syntax-ns#"
   xmlns:svg="http://www.w3.org/2000/svg"
   xmlns="http://www.w3.org/2000/svg"
   xmlns:sodipodi="http://sodipodi.sourceforge.net/DTD/sodipodi-0.dtd"
   xmlns:inkscape="http://www.inkscape.org/namespaces/inkscape"
   width="90"
   height="360"
   id="svg2"
   version="1.1"
   inkscape:version="0.48.4 r9939"
   sodipodi:docname="things.svg">
  <defs
     id="defs4" />
  <sodipodi:namedview
     id="base"
     pagecolor="#ff0000"
     bordercolor="#666666"
     borderopacity="1.0"
     inkscape:pageopacity="0.41568627"
     inkscape:pageshadow="2"
     inkscape:zoom="1.979899"
     inkscape:cx="140.57062"
     inkscape:cy="114.02934"
     inkscape:document-units="px"
     inkscape:current-layer="layer1-9"
     showgrid="false"
     showguides="true"
     inkscape:guide-bbox="true"
     inkscape:window-width="1280"
     inkscape:window-height="744"
     inkscape:window-x="-4"
     inkscape:window-y="-4"
     inkscape:window-maximized="1">
    <sodipodi:guide
       orientation="0,1"
       position="-200.76782,90.029846"
       id="guide3017" />
    <sodipodi:guide
       orientation="0,1"
       position="-206.19739,180.05969"
       id="guide3019" />
    <sodipodi:guide
       orientation="0,1"
       position="-204.42962,269.96327"
       id="guide3021" />
    <sodipodi:guide
       orientation="0,1"
       position="-194.95944,359.99311"
       id="guide3023" />
    <sodipodi:guide
       orientation="0,1"
       position="-22.678571,277.14286"
       id="guide3025" />
  </sodipodi:namedview>
  <metadata
     id="metadata7">
    <rdf:RDF>
      <cc:Work
         rdf:about="">
        <dc:format>image/svg+xml</dc:format>
        <dc:type
           rdf:resource="http://purl.org/dc/dcmitype/StillImage" />
        <dc:title></dc:title>
      </cc:Work>
    </rdf:RDF>
  </metadata>
  <g
     inkscape:label="Layer 1"
     inkscape:groupmode="layer"
     id="layer1"
     transform="translate(0,-692.36218)">
    <g
       transform="translate(-0.38038276,-0.85607945)"
       id="layer1-94"
       inkscape:label="Layer 1">
      <g
         inkscape:label="Layer 1"
         id="layer1-9"
         transform="translate(0.92695516,12.083319)"
         style="display:inline">
        <path
           style="fill:#000000"
           d=""
           id="path3927"
           inkscape:connector-curvature="0" />
        <path
           style="fill:#000000"
           d=""
           id="path3925"
           inkscape:connector-curvature="0" />
        <path
           style="fill:#000000"
           d=""
           id="path3873"
           inkscape:connector-curvature="0" />
        <path
           style="fill:#000000"
           d=""
           id="path3871"
           inkscape:connector-curvature="0" />
        <path
           style="opacity:0.56999972;fill:#ff0000"
           d=""
           id="path3943"
           inkscape:connector-curvature="0" />
        <path
           style="fill:#ffffff;fill-opacity:1;stroke:none"
           d="m 29.068294,789.9475 c -1.13768,0 -2.03125,0.89357 -2.03125,2.03125 l 0,8.125 -18.1250034,0 c -3.76591,0 -6.78125,3.04659 -6.78125,6.8125 l 0,46.40619 c 0,3.7659 3.01534,6.8125 6.78125,6.8125 l 66.4062534,0 c 3.76591,0 6.8125,-3.0466 6.8125,-6.8125 l 0,-46.40619 c 0,-3.76591 -3.04659,-6.8125 -6.8125,-6.8125 l -18.125,0 0,-8.125 c 0,-1.13768 -0.89357,-2.03125 -2.03125,-2.03125 l -26.09375,0 z m 3.125,5 20,0 0,2.1875 0,0.0312 -20,0 0,-0.0312 0,-2.1875 z m 10.09375,12.5 c 12.4264,0 22.5,10.02914 22.5,22.40624 0,12.3771 -10.0736,22.4062 -22.5,22.4062 -12.42641,0 -22.5,-10.0291 -22.5,-22.4062 0,-12.3771 10.07359,-22.40624 22.5,-22.40624 z m 0,7.50004 c -8.284269,0 -15,6.9066 -15,15.4375 0,8.5308 6.71573,15.4375 15,15.4375 8.28427,0 15,-6.9067 15,-15.4375 0,-8.5309 -6.71573,-15.4375 -15,-15.4375 z m -0.6875,10.0937 c 0.174081,-0.017 0.352491,0 0.53125,0 2.86004,0 5.1875,2.283 5.1875,5.0938 0,2.8107 -2.32746,5.0625 -5.1875,5.0625 -2.86005,0 -5.1875,-2.2518 -5.1875,-5.0625 0,-2.6351 2.044921,-4.8332 4.65625,-5.0938 z"
           id="rect4944"
           inkscape:connector-curvature="0" />
        <path
           style="fill:#ffffff;fill-opacity:1;stroke:none"
           d="m 50.878886,688.1975 -32.59375,32.68754 11.25,0 17.40625,-17.43754 c 1.34578,-1.34887 3.526128,-1.37703 4.875,-0.0312 l 14.71875,14.7187 c 0.754762,0.75304 1.058954,1.76624 0.96875,2.75004 l 5.78125,0 0,2.7812 -71.343749,0 0,16.0625 c 3.288958,0.6888 5.78125,3.6804 5.78125,7.25 0,3.5696 -2.492292,6.53 -5.78125,7.2188 l 0,15.9374 77.031254,0 0,-16.1562 c -3.19167,-0.7633 -5.562505,-3.6885 -5.562505,-7.1875 0,-3.499 2.370835,-6.393 5.562505,-7.1562 l 0,-15.9688 -1.84375,0 4.65625,-4.6562 -10.750005,-10.71879 c -2.624843,1.61582 -6.142196,1.25872 -8.46875,-1.0625 -2.326554,-2.32122 -2.672299,-5.80896 -1.0625,-8.4375 l -10.625,-10.59375 z m -1.3125,16.71875 c -0.764267,1.8e-4 -1.535826,0.3157 -2.125,0.90625 l -8.15625,8.15625 6.9375,6.90629 19.125,0 c 0.04171,-0.8199 -0.240567,-1.6483 -0.875,-2.2813 l -12.8125,-12.78124 c -0.587731,-0.58639 -1.329483,-0.90643 -2.09375,-0.90625 z m -11.65625,10.4375 -5.5,5.53129 11.0625,0 -5.5625,-5.53129 z m -21.78125,16.81249 48.375,0 c 2.028639,0 3.6875,1.6276 3.6875,3.6563 l 0,22.1562 c 0,2.0286 -1.658861,3.6562 -3.6875,3.6562 l -48.375,0 c -2.028639,0 -3.65625,-1.6276 -3.65625,-3.6562 l 0,-22.1562 c 0,-2.0287 1.627611,-3.6563 3.65625,-3.6563 z m 1.4375,2.1563 c -1.776252,0 -3.1875,1.4196 -3.1875,3.1875 l 0,19.2812 c 0,1.7679 1.411248,3.1875 3.1875,3.1875 l 31.1875,0 0,-25.6562 -31.1875,0 z m 33.25,0 0,25.6562 12.28125,0 c 1.776252,0 3.1875,-1.4196 3.1875,-3.1875 l 0,-19.2812 c 0,-1.7679 -1.411248,-3.1875 -3.1875,-3.1875 l -12.28125,0 z"
           id="rect4992"
           inkscape:connector-curvature="0" />
        <path
           style="fill:#ffffff;fill-opacity:1;stroke:none"
           d="m 6.3795215,964.88479 c -2.46445,0.24878 -4.375,2.34281 -4.375,4.875 l 0,56.78141 c 0,2.701 2.17399,4.875 4.875,4.875 l 42.9375005,0 c 2.70101,0 4.875,-2.174 4.875,-4.875 l 0,-56.78141 c 0,-2.70101 -2.17399,-4.875 -4.875,-4.875 l -42.9375005,0 c -0.16881,0 -0.3357,-0.0166 -0.5,0 z m 2.8125,7.1875 38.2812505,0 0,49.87511 -38.2812505,0 0,-49.87511 z m 64.1250005,16.65621 -17.03125,0.062 0,7.1876 12.46875,-0.062 0.15625,37.9063 -49.78125,0.1875 0,-1.0938 -7.15625,0 0,3.4063 c 6.79e-4,0.1672 -0.0172,0.3373 0,0.5 0.258199,2.4399 2.34762,4.3226 4.875,4.3125 l 56.6875,-0.2188 c 2.69587,-0.011 4.8546,-2.1685 4.84375,-4.8437 l -0.1875,-42.5313 c -0.0109,-2.6752 -2.179121,-4.8233 -4.875,-4.8126 z m 0.0937,23.5627 c 1.28767,0 2.30732,1.0347 2.3125,2.3125 0.005,1.2778 -0.99359,2.3386 -2.28125,2.3437 -1.28767,0 -2.36982,-1.0347 -2.375,-2.3125 -0.005,-1.2778 1.05608,-2.3386 2.34375,-2.3437 z m -44.84375,11.9062 c 1.29012,0 2.34375,1.0536 2.34375,2.3438 0,1.2901 -1.05363,2.3125 -2.34375,2.3125 -1.29012,0 -2.34375,-1.0224 -2.34375,-2.3125 0,-1.2902 1.05363,-2.3438 2.34375,-2.3438 z"
           id="rect5062"
           inkscape:connector-curvature="0" />
        <path
           style="fill:#ffffff;fill-opacity:1;stroke:none"
           d="m 24.598272,864.79125 c -5.803131,0 -10.58223,4.34875 -11.1875,9.96875 -1.19467,-0.93093 -2.69232,-1.5 -4.3125005,-1.5 -3.92024,0 -7.09375,3.22455 -7.09375,7.21875 0,3.9942 3.17351,7.25 7.09375,7.25 0.55788,0 1.1042005,-0.0948 1.6250005,-0.21875 0.6827,3.54893 5.38981,6.3125 11.09375,6.3125 4.75862,0 8.79345,-1.93052 10.40625,-4.625 2.105619,2.5682 5.544099,4.25 9.4375,4.25 6.41045,0 11.59375,-4.55944 11.59375,-10.15625 0,-5.59681 -5.1833,-10.125 -11.59375,-10.125 -2.16064,0 -4.17389,0.53979 -5.90625,1.4375 -0.67877,-5.54182 -5.40904,-9.8125 -11.15625,-9.8125 z M 2.0982715,889.635 l 0,53.34374 c 0,3.9571 3.19911,7.1562 7.15625,7.1562 l 36.5937505,0 c 3.95714,0 7.15625,-3.1991 7.15625,-7.1562 l 0,-4.2812 7.5,0 c 5.26703,0 9.5,-4.233 9.5,-9.5 l 0,-20.9063 c 0,-5.267 -4.23297,-9.5 -9.5,-9.5 l -7.5,0 0,-8.84374 c -1.139811,5.10463 -5.83092,8.93754 -11.4375,8.93754 -3.81956,0 -7.209121,-1.78579 -9.34375,-4.53129 -2.442021,2.87183 -6.15392,4.71879 -10.3125,4.71879 -4.9015,0 -9.16079,-2.55655 -11.46875,-6.34379 -0.36876,0.0417 -0.7450605,0.0937 -1.1250005,0.0937 -2.87138,0 -5.43739,-1.24592 -7.21875,-3.1875 z m 23.0625005,15.21874 4.9375,0 0,30.6875 -4.9375,0 0,-30.6875 z m -14.125,0.125 4.90625,0 0,30.6875 -4.90625,0 0,-30.6875 z m 28.40625,0 4.9375,0 0,30.6875 -4.9375,0 0,-30.6875 z m 13.75,2.7813 7.40625,0 0.4375,0 0,0.062 c 1.99494,0.2176 3.53125,1.8827 3.53125,3.9375 l 0,14 c 0,2.0552 -1.53557,3.7205 -3.53125,3.9375 l 0,0.031 -0.4375,0 -7.40625,0 0,-21.9688 z"
           id="rect5077"
           inkscape:connector-curvature="0" />
      </g>
    </g>
  </g>
</svg>
